<svg version="1.1" id="Layer_1" xmlns="http://www.w3.org/2000/svg" xmlns:xlink="http://www.w3.org/1999/xlink" x="0px" y="0px"
	 width="100%" viewBox="0 0 500 500" enable-background="new 0 0 500 500" xml:space="preserve">
<path fill="none" opacity="1.000000" stroke="none" 
	d="
M501.000000,186.000000 
	C501.000000,291.333313 501.000000,396.166626 501.000000,500.999939 
	C334.333405,500.999969 167.666794,500.999969 1.000146,501.000000 
	C1.000097,334.333435 1.000097,167.666870 1.000049,1.000235 
	C167.666519,1.000157 334.333038,1.000157 500.999786,1.000078 
	C501.000000,62.500000 501.000000,124.000000 501.000000,186.000000 
M63.015488,72.910278 
	C63.012650,149.961227 63.016743,227.012161 62.972897,304.063080 
	C62.971607,306.330078 62.465385,308.596771 61.915684,311.522400 
	C51.141895,319.416412 43.092674,329.811676 37.027405,341.402130 
	C27.538643,359.534698 23.276760,378.920929 25.980598,399.593292 
	C28.035122,415.301270 32.830891,429.908264 41.553902,443.179016 
	C49.833393,455.774994 60.478821,465.702087 73.205475,473.934296 
	C89.651863,484.572571 107.668831,488.959534 126.703392,488.640076 
	C135.670486,488.489594 144.803177,487.950134 153.835388,485.197784 
	C176.489136,478.294495 194.512131,465.399445 208.207657,446.380554 
	C217.554489,433.400635 222.330780,418.713745 225.413574,402.920959 
	C228.676270,386.206482 225.561493,370.662537 220.510269,355.352692 
	C217.617188,346.583984 212.865448,338.133118 207.512314,330.555115 
	C202.239960,323.091400 195.152161,316.910126 188.995422,309.196808 
	C188.994904,262.083313 189.013596,214.969788 188.987122,167.856293 
	C188.969528,136.562683 188.887375,105.269104 188.955841,73.248322 
	C188.654755,72.158539 188.353668,71.068764 187.986755,69.156570 
	C187.947067,67.785995 187.907394,66.415413 187.973114,64.354401 
	C187.686493,63.553246 187.399872,62.752087 187.003265,61.176086 
	C185.297485,56.693993 184.074326,51.947979 181.794891,47.779575 
	C175.107101,35.549637 165.850281,25.983078 152.973068,19.827559 
	C142.354828,14.751856 131.327667,13.774422 119.919327,14.038419 
	C103.928284,14.408463 90.863281,21.790703 80.148224,32.631615 
	C70.428703,42.465294 64.663910,54.931084 63.034508,69.740250 
	C63.079319,70.487419 63.124130,71.234589 63.015488,72.910278 
M256.036987,282.365204 
	C259.904388,288.640228 263.464508,295.131958 267.704437,301.144257 
	C275.999908,312.907410 287.722443,320.229004 301.373627,323.812561 
	C315.027130,327.396698 328.590424,327.086731 342.458588,322.361542 
	C352.997314,318.770813 361.621460,312.761505 368.737091,305.240631 
	C377.461517,296.019379 383.686859,284.970123 386.777985,271.989410 
	C389.866699,259.018860 390.105804,246.283081 385.403442,234.337250 
	C379.576843,219.535431 372.122406,205.301819 364.473175,191.313812 
	C358.714844,180.783585 351.762390,170.875198 344.940308,160.966217 
	C337.582001,150.278381 329.556702,140.048523 322.243134,129.331726 
	C319.665161,125.554169 317.871002,126.988197 316.259003,129.337875 
	C303.532806,147.888123 290.878693,166.488892 278.345551,185.170120 
	C268.749207,199.473953 261.264038,214.857773 254.935730,230.882797 
	C250.677368,241.666077 250.283264,252.777328 251.308884,263.917389 
	C251.859177,269.894470 254.387726,275.689392 256.036987,282.365204 
M404.995270,335.544495 
	C399.220520,343.294312 392.974030,350.742645 387.782898,358.865387 
	C380.222961,370.694702 373.054993,382.815125 366.496796,395.222107 
	C364.178192,399.608521 363.420898,405.167023 363.189514,410.246796 
	C362.406708,427.432617 368.988312,441.377594 382.133911,452.675720 
	C394.958618,463.698181 409.834106,464.544495 425.209473,462.261078 
	C437.372498,460.454712 446.751343,453.098389 453.887146,443.424927 
	C461.713165,432.815765 465.596619,420.499268 463.492706,407.408630 
	C461.387421,394.309662 454.721130,382.812592 447.396790,371.856750 
	C440.671448,361.796906 433.988220,351.696747 426.878540,341.910675 
	C422.734802,336.207031 417.789734,331.085602 412.913635,325.359894 
	C410.211945,328.873627 407.853271,331.941254 404.995270,335.544495 
M436.465790,43.993507 
	C435.113464,42.241611 433.761139,40.489712 431.913574,38.096245 
	C428.098572,42.797760 424.613434,46.667732 421.604248,50.877888 
	C410.967590,65.759499 400.466217,80.699272 392.736267,97.437714 
	C387.523743,108.725014 386.692871,120.448273 390.223297,131.770905 
	C395.188354,147.694763 405.829895,158.796387 422.775848,162.910187 
	C431.784088,165.097061 440.398193,164.055740 448.752289,160.590286 
	C459.327972,156.203278 467.321960,148.437332 471.643280,138.159027 
	C474.770386,130.721146 477.654541,121.787766 476.387451,114.235992 
	C474.666351,103.978172 469.984619,93.742661 464.579132,84.687592 
	C456.268555,70.765953 446.263306,57.855961 436.465790,43.993507 
z"/>
<path fill="#4B89C4" opacity="1.000000" stroke="none" 
	d="
M188.860931,310.166168 
	C195.152161,316.910126 202.239960,323.091400 207.512314,330.555115 
	C212.865448,338.133118 217.617188,346.583984 220.510269,355.352692 
	C225.561493,370.662537 228.676270,386.206482 225.413574,402.920959 
	C222.330780,418.713745 217.554489,433.400635 208.207657,446.380554 
	C194.512131,465.399445 176.489136,478.294495 153.835388,485.197784 
	C144.803177,487.950134 135.670486,488.489594 126.703392,488.640076 
	C107.668831,488.959534 89.651863,484.572571 73.205475,473.934296 
	C60.478821,465.702087 49.833393,455.774994 41.553902,443.179016 
	C32.830891,429.908264 28.035122,415.301270 25.980598,399.593292 
	C23.276760,378.920929 27.538643,359.534698 37.027405,341.402130 
	C43.092674,329.811676 51.141895,319.416412 62.327057,311.089813 
	C63.199600,310.072632 63.660770,309.488037 64.291641,308.538452 
	C64.641113,306.363220 64.976830,304.553101 64.977875,302.742798 
	C65.005676,254.638229 65.010323,206.533630 64.960342,158.429123 
	C64.958138,156.311615 64.402893,154.194687 64.093079,151.786163 
	C64.093315,151.300797 64.105728,151.106796 64.289200,150.547501 
	C64.626274,149.370972 64.936249,148.559921 64.937378,147.748444 
	C64.971848,122.954613 65.006645,98.160614 64.907227,73.367180 
	C64.901382,71.909348 63.775444,70.456009 63.170750,69.000580 
	C64.663910,54.931084 70.428703,42.465294 80.148224,32.631615 
	C90.863281,21.790703 103.928284,14.408463 119.919327,14.038419 
	C131.327667,13.774422 142.354828,14.751856 152.973068,19.827559 
	C165.850281,25.983078 175.107101,35.549637 181.794891,47.779575 
	C184.074326,51.947979 185.297485,56.693993 186.888519,61.801910 
	C186.492737,63.570004 184.762863,65.317894 187.867722,65.044838 
	C187.907394,66.415413 187.947067,67.785995 187.818024,69.930588 
	C187.469925,71.342247 187.138199,71.978683 187.133133,72.617729 
	C186.920486,99.396828 186.609756,126.176025 186.581940,152.955490 
	C186.546524,187.049088 186.737564,221.142929 186.841934,255.236649 
	C186.893356,272.033936 186.954132,288.831268 187.068542,305.628174 
	C187.076218,306.753845 187.574036,307.876190 187.979095,309.223145 
	C188.363174,309.686188 188.612045,309.926178 188.860931,310.166168 
M116.822258,99.374794 
	C116.721970,96.109200 116.621681,92.843597 116.580315,89.466682 
	C116.580315,89.466682 116.693253,89.522469 117.671043,89.682274 
	C128.440277,89.759789 139.209396,89.861610 149.978760,89.906113 
	C156.938782,89.934875 163.914200,90.128441 170.849976,89.707962 
	C172.884552,89.584618 176.513367,87.596588 176.503754,86.488396 
	C176.441605,79.321617 175.574692,72.161819 174.682373,64.321960 
	C174.527252,63.847332 174.355911,63.377319 174.219345,62.897415 
	C167.323853,38.668148 144.149765,23.083961 119.861328,26.345518 
	C94.607567,29.736702 76.131348,50.525475 76.061829,76.022079 
	C75.960144,113.316216 76.072342,150.610931 76.250763,188.413330 
	C76.504547,188.657516 76.758331,188.901703 77.755554,189.493271 
	C79.068985,189.659103 80.382294,189.968536 81.695869,189.969696 
	C111.164223,189.995911 140.632645,190.001556 170.100922,189.950882 
	C171.722610,189.948090 173.343414,189.423767 175.387573,188.814072 
	C175.552887,188.506119 175.718216,188.198181 175.967072,186.970062 
	C175.967072,175.097672 175.967072,163.225281 175.967072,151.022247 
	C163.468842,151.022247 151.854935,151.080994 140.241959,151.001114 
	C132.788605,150.949844 125.336662,150.694412 117.787758,149.777176 
	C115.009186,140.788361 115.582626,140.019241 125.271729,140.005630 
	C140.556152,139.984161 155.840836,140.036728 171.124954,139.965179 
	C176.647034,139.939316 177.906540,138.668625 177.959915,133.172760 
	C178.047012,124.202301 178.093445,115.227936 177.890793,106.261230 
	C177.851440,104.520370 176.595245,102.807014 175.037384,101.045982 
	C173.020782,100.992455 171.004166,100.938927 168.233307,100.568802 
	C166.589401,100.397820 164.945786,100.081749 163.301544,100.078415 
	C147.843857,100.047081 132.386063,100.069191 117.000305,100.002884 
	C117.000305,100.002884 116.929001,100.079262 116.822258,99.374794 
M175.498993,238.239609 
	C175.666138,227.764923 175.643585,217.282196 176.087158,206.819229 
	C176.283997,202.176544 174.690750,200.896378 170.145416,200.924240 
	C140.987595,201.103012 111.828148,201.010712 82.669235,201.018860 
	C76.043312,201.020721 76.018883,201.041290 76.017143,207.521988 
	C76.007935,241.846207 75.933212,276.170807 76.107834,310.494141 
	C76.130547,314.958801 74.668556,317.790253 71.245369,320.574249 
	C51.179600,336.893250 40.122913,357.964752 38.875320,383.930695 
	C36.078583,442.139038 88.728607,486.930176 145.255585,473.684662 
	C178.850784,465.812592 201.303802,444.531555 210.240662,411.162689 
	C219.107483,378.055298 210.482330,348.668915 185.694321,324.884552 
	C179.477936,318.919830 174.057510,313.937988 175.901428,304.553955 
	C176.568390,301.159729 173.855423,301.020660 171.355179,301.026520 
	C162.191040,301.048096 153.026764,301.025116 143.862549,301.016815 
	C136.031342,301.009735 128.182297,301.287903 120.380455,300.804810 
	C118.209915,300.670380 115.255402,298.707520 114.364731,296.791351 
	C113.596107,295.137695 114.638931,291.824799 116.022240,290.244385 
	C117.147865,288.958344 119.960823,288.765442 122.030373,288.750336 
	C137.858673,288.634918 153.688171,288.693604 169.517273,288.672699 
	C175.969833,288.664185 175.977829,288.635468 175.986450,281.979126 
	C175.996796,273.981262 175.996033,265.983368 175.992050,257.985504 
	C175.988586,251.043198 175.983658,251.031265 169.236038,251.024475 
	C153.073715,251.008224 136.906937,251.187241 120.754059,250.792145 
	C118.413864,250.734894 115.116158,248.446075 114.078781,246.308167 
	C112.564552,243.187515 114.324532,240.192627 118.764717,239.401093 
	C119.732384,239.588989 120.699661,239.938446 121.667763,239.940720 
	C138.037949,239.979172 154.408325,240.000351 170.778290,239.933807 
	C172.205048,239.928009 173.629211,239.281799 175.498993,238.239609 
z"/>
<path fill="#4B89C4" opacity="1.000000" stroke="none" 
	d="
M187.843872,309.000061 
	C187.574036,307.876190 187.076218,306.753845 187.068542,305.628174 
	C186.954132,288.831268 186.893356,272.033936 186.841934,255.236649 
	C186.737564,221.142929 186.546524,187.049088 186.581940,152.955490 
	C186.609756,126.176025 186.920486,99.396828 187.133133,72.617729 
	C187.138199,71.978683 187.469925,71.342247 187.850922,70.341797 
	C188.353668,71.068764 188.654755,72.158539 188.638123,73.945007 
	C188.230377,75.465248 188.062241,76.288750 188.061569,77.112373 
	C188.034622,110.263557 188.036652,143.414764 188.005661,176.565948 
	C187.964401,220.710663 187.898941,264.855347 187.843872,309.000061 
z"/>
<path fill="#4B89C4" opacity="1.000000" stroke="none" 
	d="
M64.118134,150.912781 
	C64.105728,151.106796 64.093315,151.300797 64.051445,152.246521 
	C64.011322,169.155273 63.980305,185.312332 63.994133,201.469360 
	C64.024788,237.280746 64.077957,273.092102 64.121941,308.903473 
	C63.660770,309.488037 63.199600,310.072632 62.466507,310.760437 
	C62.465385,308.596771 62.971607,306.330078 62.972897,304.063080 
	C63.016743,227.012161 63.012650,149.961227 63.336327,72.787468 
	C63.778053,75.146164 63.998230,77.627434 64.004395,80.109222 
	C64.063034,103.710358 64.085365,127.311584 64.118134,150.912781 
z"/>
<path fill="#4B89C4" opacity="1.000000" stroke="none" 
	d="
M187.979095,309.223145 
	C187.898941,264.855347 187.964401,220.710663 188.005661,176.565948 
	C188.036652,143.414764 188.034622,110.263557 188.061569,77.112373 
	C188.062241,76.288750 188.230377,75.465248 188.577255,74.308601 
	C188.887375,105.269104 188.969528,136.562683 188.987122,167.856293 
	C189.013596,214.969788 188.994904,262.083313 188.928162,309.681488 
	C188.612045,309.926178 188.363174,309.686188 187.979095,309.223145 
z"/>
<path fill="#4B89C4" opacity="1.000000" stroke="none" 
	d="
M64.289200,150.547501 
	C64.085365,127.311584 64.063034,103.710358 64.004395,80.109222 
	C63.998230,77.627434 63.778053,75.146164 63.413055,72.323212 
	C63.124130,71.234589 63.079319,70.487419 63.102631,69.370415 
	C63.775444,70.456009 64.901382,71.909348 64.907227,73.367180 
	C65.006645,98.160614 64.971848,122.954613 64.937378,147.748444 
	C64.936249,148.559921 64.626274,149.370972 64.289200,150.547501 
z"/>
<path fill="#4B89C4" opacity="1.000000" stroke="none" 
	d="
M187.920410,64.699615 
	C184.762863,65.317894 186.492737,63.570004 186.943512,62.189331 
	C187.399872,62.752087 187.686493,63.553246 187.920410,64.699615 
z"/>
<!--  -->
<path fill="#4B89C4" opacity="1.000000" stroke="none" 
	d="
M118.029442,239.041077 
	C114.324532,240.192627 112.564552,243.187515 114.078781,246.308167 
	C115.116158,248.446075 118.413864,250.734894 120.754059,250.792145 
	C136.906937,251.187241 153.073715,251.008224 169.236038,251.024475 
	C175.983658,251.031265 175.988586,251.043198 175.992050,257.985504 
	C175.996033,265.983368 175.996796,273.981262 175.986450,281.979126 
	C175.977829,288.635468 175.969833,288.664185 169.517273,288.672699 
	C153.688171,288.693604 137.858673,288.634918 122.030373,288.750336 
	C119.960823,288.765442 117.147865,288.958344 116.022240,290.244385 
	C114.638931,291.824799 113.596107,295.137695 114.364731,296.791351 
	C115.255402,298.707520 118.209915,300.670380 120.380455,300.804810 
	C128.182297,301.287903 136.031342,301.009735 143.862549,301.016815 
	C153.026764,301.025116 162.191040,301.048096 171.355179,301.026520 
	C173.855423,301.020660 176.568390,301.159729 175.901428,304.553955 
	C174.057510,313.937988 179.477936,318.919830 185.694321,324.884552 
	C210.482330,348.668915 219.107483,378.055298 210.240662,411.162689 
	C201.303802,444.531555 178.850784,465.812592 145.255585,473.684662 
	C88.728607,486.930176 36.078583,442.139038 38.875320,383.930695 
	C40.122913,357.964752 51.179600,336.893250 71.245369,320.574249 
	C74.668556,317.790253 76.130547,314.958801 76.107834,310.494141 
	C75.933212,276.170807 76.007935,241.846207 76.017143,207.521988 
	C76.018883,201.041290 76.043312,201.020721 82.669235,201.018860 
	C111.828148,201.010712 140.987595,201.103012 170.145416,200.924240 
	C174.690750,200.896378 176.283997,202.176544 176.087158,206.819229 
	C175.643585,217.282196 175.666138,227.764923 174.806427,238.523651 
	C155.419052,238.885483 136.724243,238.963287 118.029442,239.041077 
z"/>
<path fill="#4B89C4" opacity="1.000000" stroke="none" 
	d="
M117.835922,150.153839 
	C114.347099,149.214691 112.994446,146.649277 113.897751,143.052277 
	C114.851944,139.252670 117.925041,138.471786 121.267570,138.465149 
	C137.059433,138.433792 152.851410,138.460938 168.643341,138.466934 
	C170.917740,138.467804 173.192139,138.467056 175.973389,138.467056 
	C175.973389,125.852715 175.973389,113.926819 175.936859,101.540947 
	C176.595245,102.807014 177.851440,104.520370 177.890793,106.261230 
	C178.093445,115.227936 178.047012,124.202301 177.959915,133.172760 
	C177.906540,138.668625 176.647034,139.939316 171.124954,139.965179 
	C155.840836,140.036728 140.556152,139.984161 125.271729,140.005630 
	C115.582626,140.019241 115.009186,140.788361 117.835922,150.153839 
z"/>
<path fill="#4B89C4" opacity="1.000000" stroke="none" 
	d="
M64.291641,308.538452 
	C64.077957,273.092102 64.024788,237.280746 63.994133,201.469360 
	C63.980305,185.312332 64.011322,169.155273 64.063629,152.537872 
	C64.402893,154.194687 64.958138,156.311615 64.960342,158.429123 
	C65.010323,206.533630 65.005676,254.638229 64.977875,302.742798 
	C64.976830,304.553101 64.641113,306.363220 64.291641,308.538452 
z"/>
<path fill="#4B89C4" opacity="1.000000" stroke="none" 
	d="
M117.182144,89.602371 
	C118.937233,89.120201 121.179024,88.384239 123.425552,88.369469 
	C138.748764,88.268730 154.072968,88.329842 169.396820,88.308998 
	C171.350555,88.306343 173.304047,88.131401 176.221191,87.989357 
	C175.780441,80.352547 175.362549,73.111618 174.958145,65.435211 
	C175.574692,72.161819 176.441605,79.321617 176.503754,86.488396 
	C176.513367,87.596588 172.884552,89.584618 170.849976,89.707962 
	C163.914200,90.128441 156.938782,89.934875 149.978760,89.906113 
	C139.209396,89.861610 128.440277,89.759789 117.182144,89.602371 
z"/>
<path fill="#4B89C4" opacity="1.000000" stroke="none" 
	d="
M118.397079,239.221085 
	C136.724243,238.963287 155.419052,238.885483 174.584229,238.870361 
	C173.629211,239.281799 172.205048,239.928009 170.778290,239.933807 
	C154.408325,240.000351 138.037949,239.979172 121.667763,239.940720 
	C120.699661,239.938446 119.732384,239.588989 118.397079,239.221085 
z"/>
<path fill="#4B89C4" opacity="1.000000" stroke="none" 
	d="
M168.610443,100.727104 
	C151.867447,100.775017 134.747314,100.664627 117.277756,100.315048 
	C132.386063,100.069191 147.843857,100.047081 163.301544,100.078415 
	C164.945786,100.081749 166.589401,100.397820 168.610443,100.727104 
z"/>
<path fill="#4B89C4" opacity="1.000000" stroke="none" 
	d="
M116.875626,99.727028 
	C112.538689,96.585617 112.323303,94.456650 116.207024,89.706802 
	C116.621681,92.843597 116.721970,96.109200 116.875626,99.727028 
z"/>
<path fill="#4B89C4" opacity="1.000000" stroke="none" 
	d="
M76.988235,188.327972 
	C77.271774,188.498154 77.184654,188.838547 77.098381,188.992218 
	C76.758331,188.901703 76.504547,188.657516 76.172073,188.159363 
	C76.297150,187.989532 76.500923,188.073669 76.988235,188.327972 
z"/>
<path fill="#4B89C4" opacity="1.000000" stroke="none" 
	d="
M175.176102,188.978134 
	C174.964630,189.142197 174.795303,188.850479 174.752686,188.687485 
	C174.897934,188.404434 175.085770,188.284378 175.578568,188.027283 
	C175.718216,188.198181 175.552887,188.506119 175.176102,188.978134 
z"/>
<path fill="#4B89C4" opacity="1.000000" stroke="none" 
	d="
M283.672485,299.349426 
	C268.359589,285.789581 257.162689,259.156219 268.285553,232.856659 
	C278.932709,207.681885 293.295715,184.734772 308.633698,162.299896 
	C312.089844,157.244583 315.720886,152.308853 319.761139,146.629684 
	C322.943848,151.065506 325.802795,154.899841 328.505280,158.841431 
	C344.435364,182.075714 359.497101,205.753143 370.822510,231.732224 
	C385.546295,265.506805 364.888184,300.053467 339.454346,309.567841 
	C319.055450,317.198730 300.534454,313.532532 283.672485,299.349426 
z"/>
</svg>